<svg xmlns:xlink="http://www.w3.org/1999/xlink" width="10.886" xmlns="http://www.w3.org/2000/svg" height="10.886" id="screenshot-636d4073-99a1-80a9-8004-12a029c04d9c" viewBox="708 403 10.886 10.886" style="-webkit-print-color-adjust: exact;" fill="none" version="1.1"><g id="shape-636d4073-99a1-80a9-8004-12a029c04d9c"><g class="fills" id="fills-636d4073-99a1-80a9-8004-12a029c04d9c"><path fill-rule="evenodd" clip-rule="evenodd" rx="0" ry="0" d="M715.645,410.128C716.283,409.374,716.667,408.398,716.667,407.333C716.667,404.940,714.727,403.000,712.333,403.000C709.940,403.000,708.000,404.940,708.000,407.333C708.000,409.727,709.940,411.667,712.333,411.667C713.398,411.667,714.374,411.282,715.128,410.645L715.000,411.381L717.505,413.886L718.886,412.505L716.381,410.000L715.645,410.128ZZM712.333,410.667C714.174,410.667,715.667,409.174,715.667,407.333C715.667,405.492,714.174,404.000,712.333,404.000C710.492,404.000,709.000,405.492,709.000,407.333C709.000,409.174,710.492,410.667,712.333,410.667ZZ" style="fill: rgb(253, 220, 190); fill-opacity: 1;"/></g></g></svg>