<svg xmlns:xlink="http://www.w3.org/1999/xlink" width="19.093" xmlns="http://www.w3.org/2000/svg" height="17.916" id="screenshot-636d4073-99a1-80a9-8004-129efd6c44d8" viewBox="400.453 403.044 19.093 17.916" style="-webkit-print-color-adjust: exact;" fill="none" version="1.1"><g id="shape-636d4073-99a1-80a9-8004-129efd6c44d8"><g class="fills" id="fills-636d4073-99a1-80a9-8004-129efd6c44d8"><path rx="0" ry="0" d="M419.333,412.853L419.413,412.693C419.440,412.640,419.467,412.587,419.467,412.533C419.493,412.480,419.493,412.427,419.520,412.373C419.520,412.320,419.547,412.267,419.547,412.187L419.547,411.813C419.547,411.760,419.520,411.707,419.520,411.627C419.520,411.573,419.493,411.520,419.467,411.467C419.440,411.413,419.440,411.360,419.413,411.307L419.333,411.147L419.253,410.987C419.227,410.933,419.173,410.880,419.147,410.827C419.120,410.800,419.120,410.773,419.093,410.773L412.720,403.653C412.053,402.907,410.880,402.827,410.133,403.520C409.387,404.187,409.307,405.360,410.000,406.107L413.653,410.187L402.293,410.187C401.280,410.187,400.453,411.013,400.453,412.027C400.453,413.040,401.280,413.867,402.293,413.867L413.627,413.867L409.973,417.920C409.307,418.667,409.360,419.840,410.107,420.507C410.453,420.827,410.880,420.960,411.333,420.960C411.840,420.960,412.347,420.747,412.693,420.347L419.067,413.227C419.093,413.200,419.093,413.173,419.120,413.173C419.173,413.120,419.200,413.067,419.227,413.013C419.280,412.960,419.307,412.907,419.333,412.853ZZ" style="fill: rgb(253, 220, 190); fill-opacity: 1;"/></g></g></svg>